PathFileType	4	(X/Y/Z)	/Users/itak/Documents/Research/Walk-IL/dataset/trc/00029_00004.trc
DataRate	CameraRate	NumFrames	NumMarkers	Units	OrigDataRate	OrigDataStartFrame	OrigNumFrames
100.000000	100.000000	4	53	mm	100.000000	575	767
Frame#	Time	RPSI			LPSI			L3			STRN			T10			C7			CLAV			RBAK			LBAK			LSHO			LUPA			LAEL			LAOL			LWTS			LWPS			LFRA			LIFD			LHPS			LHTS			RSHO			RUPA			RAEL			RAOL			RWTS			RWPS			RFRA			RIFD			RHTS			RHPS			RBHD			LFHD			RFHD			LBHD			LHIP			RHIP			RASI			LASI			LKNE			LTHI			LANK			LTIP			LTOE			LMT1			LMT5			LHEE			RKNE			RTHI			RANK			RTIP			RTOE			RMT1			RMT5			RHEE			
		X1	Y1	Z1	X2	Y2	Z2	X3	Y3	Z3	X4	Y4	Z4	X5	Y5	Z5	X6	Y6	Z6	X7	Y7	Z7	X8	Y8	Z8	X9	Y9	Z9	X10	Y10	Z10	X11	Y11	Z11	X12	Y12	Z12	X13	Y13	Z13	X14	Y14	Z14	X15	Y15	Z15	X16	Y16	Z16	X17	Y17	Z17	X18	Y18	Z18	X19	Y19	Z19	X20	Y20	Z20	X21	Y21	Z21	X22	Y22	Z22	X23	Y23	Z23	X24	Y24	Z24	X25	Y25	Z25	X26	Y26	Z26	X27	Y27	Z27	X28	Y28	Z28	X29	Y29	Z29	X30	Y30	Z30	X31	Y31	Z31	X32	Y32	Z32	X33	Y33	Z33	X34	Y34	Z34	X35	Y35	Z35	X36	Y36	Z36	X37	Y37	Z37	X38	Y38	Z38	X39	Y39	Z39	X40	Y40	Z40	X41	Y41	Z41	X42	Y42	Z42	X43	Y43	Z43	X44	Y44	Z44	X45	Y45	Z45	X46	Y46	Z46	X47	Y47	Z47	X48	Y48	Z48	X49	Y49	Z49	X50	Y50	Z50	X51	Y51	Z51	X52	Y52	Z52	X53	Y53	Z53	

576	5.75	824.98583984375	1026.836059570312	311.15185546875	983.7125854492188	1027.19775390625	347.5384521484375	914.0090942382812	1087.62255859375	324.9985961914062	824.8468017578125	1271.006591796875	535.8657836914062	920.5439453125	1231.101196289062	301.6024475097656	888.0846557617188	1497.71240234375	353.709228515625	831.320068359375	1397.26025390625	495.4184265136719	850.1737670898438	1354.550170898438	272.2594299316406	988.501953125	1468.849609375	374.1281433105469	1014.346130371094	1477.613037109375	496.96630859375	1114.54248046875	1366.436889648438	496.21435546875	1174.2783203125	1157.800170898438	503.2867431640625	1116.8466796875	1135.878662109375	415.4357604980469	1109.78369140625	904.7491455078125	579.326171875	1185.280517578125	893.0563354492188	534.113525390625	1187.468505859375	1044.296020507812	525.9721069335938	1097.237548828125	718.4354248046875	608.9342041015625	1175.897216796875	804.694580078125	571.165283203125	1118.151733398438	813.3998413085938	610.9691772460938	700.7611083984375	1457.908081054688	354.6447143554688	650.3966674804688	1385.277587890625	310.3535461425781	662.2024536132812	1126.672729492188	241.3645172119141	748.7891235351562	1100.0546875	282.8927917480469	656.7547607421875	860.7728271484375	358.6297302246094	623.7586669921875	845.2757568359375	272.8720397949219	648.0120239257812	1048.83837890625	241.3607788085938	690.3497924804688	677.6966552734375	378.8688354492188	645.534912109375	749.0877075195312	380.7052307128906	622.0302124023438	741.0711669921875	308.674560546875	873.6311645507812	1687.9111328125	474.5255432128906	664.2588500976562	1634.8046875	505.4040832519531	728.4154663085938	1651.181030273438	577.75146484375	775.2194213867188	1659.29541015625	373.48095703125	1074.6240234375	928.6146240234375	458.271240234375	703.9918823242188	913.1203002929688	408.5999450683594	755.8307495117188	948.0230102539062	519.8385620117188	986.2868041992188	967.8944702148438	564.28369140625	1092.177001953125	481.8697509765625	444.5971374511719	1099.26513671875	629.4357299804688	443.3005676269531	1184.442993164062	136.6434631347656	65.71450805664062	1157.003784179688	326.8385314941406	241.4031677246094	1086.615966796875	26.35340690612793	221.1240997314453	1079.80810546875	57.4205322265625	175.2684631347656	1184.018676757812	47.94454956054688	154.3127746582031	1144.823486328125	191.9789581298828	13.44570159912109	714.12353515625	516.0354614257812	572.240234375	688.1859130859375	762.082763671875	465.8330383300781	807.2489624023438	31.85651206970215	610.0159912109375	725.0848388671875	386.669921875	588.3041381835938	688.4349365234375	47.44345092773438	810.7560424804688	752.0216674804688	48.35921478271484	783.6702270507812	693.9068603515625	39.82075500488281	706.7796630859375	876.6300048828125	32.91655731201172	599.2645874023438	
577	5.76	822.1016235351562	1028.230224609375	319.5061340332031	980.3818969726562	1028.527587890625	357.8465576171875	910.871337890625	1089.10302734375	334.3450622558594	819.217041015625	1272.704833984375	544.2011108398438	917.4544677734375	1232.446166992188	310.9085083007812	884.461181640625	1499.10498046875	362.2691040039062	826.157470703125	1398.879150390625	503.3629455566406	847.249755859375	1355.819580078125	280.7319030761719	984.6067504882812	1470.435913085938	383.8336486816406	1009.170593261719	1479.317626953125	506.8945922851562	1109.225708007812	1368.024780273438	507.0018920898438	1168.397583007812	1159.19287109375	513.63623046875	1111.252685546875	1137.689453125	425.5322570800781	1104.160034179688	905.1780395507812	587.24365234375	1179.808471679688	894.1240844726562	542.0357666015625	1181.671875	1045.48876953125	535.44970703125	1092.034912109375	718.4102172851562	614.6041870117188	1170.553833007812	805.3299560546875	578.038818359375	1112.704833984375	813.4174194335938	617.838134765625	697.13818359375	1459.536499023438	361.4005432128906	647.0938720703125	1386.8046875	316.852294921875	658.9828491210938	1127.798828125	249.4052886962891	745.0052490234375	1100.964965820312	291.9949951171875	652.3921508789062	862.6100463867188	368.581787109375	619.9142456054688	846.5836791992188	282.7751770019531	644.6867065429688	1049.972534179688	249.8652648925781	685.6800537109375	679.7098999023438	390.1556701660156	640.9140014648438	751.0888061523438	391.3051147460938	617.873046875	742.6546020507812	319.2362365722656	868.4810180664062	1689.513793945312	482.6118469238281	658.8424682617188	1636.03271484375	511.8685913085938	722.5387573242188	1652.578857421875	584.7381591796875	770.9027099609375	1660.652221679688	380.8394470214844	1069.629272460938	929.6371459960938	470.2468566894531	699.90771484375	914.3743896484375	415.1846923828125	749.93408203125	949.6031494140625	527.1144409179688	979.7133178710938	969.4981079101562	574.5592651367188	1086.8798828125	481.2489624023438	464.5165710449219	1094.238891601562	629.4542236328125	460.9226379394531	1185.66064453125	147.185546875	76.98217010498047	1155.00244140625	330.4079895019531	258.8116455078125	1086.52685546875	25.73750114440918	224.4911804199219	1079.78173828125	60.69075775146484	180.8524627685547	1184.336547851562	54.36983108520508	161.2973327636719	1146.563110351562	204.2740020751953	26.7012767791748	710.9990844726562	516.3121337890625	578.3547973632812	684.115234375	762.7914428710938	472.2697143554688	807.27099609375	32.18496704101562	610.44287109375	722.677978515625	386.8277893066406	593.4144897460938	688.6287841796875	45.44348907470703	811.7509765625	752.226318359375	47.01979064941406	784.49951171875	693.8849487304688	39.67201614379883	707.5158081054688	876.516357421875	33.22906875610352	599.4967041015625	
578	5.77	819.1610717773438	1029.563598632812	327.6566772460938	976.9920654296875	1029.806030273438	367.8258361816406	907.67333984375	1090.612426757812	343.4217834472656	813.6531982421875	1274.37890625	552.2024536132812	914.3588256835938	1233.858642578125	319.9873962402344	880.9483642578125	1500.561401367188	370.6871337890625	821.0828247070312	1400.491577148438	511.1849975585938	844.38330078125	1357.188354492188	289.0314025878906	980.793701171875	1472.062744140625	393.471923828125	1004.046936035156	1480.986206054688	516.7276000976562	1103.950439453125	1369.5849609375	517.7352905273438	1162.60107421875	1160.537841796875	523.9749145507812	1105.84912109375	1139.467163085938	435.5633544921875	1098.434204101562	905.6138305664062	595.079833984375	1174.293334960938	895.1666870117188	549.991455078125	1175.894653320312	1046.632202148438	544.9313354492188	1086.547485351562	718.4014892578125	620.0899658203125	1165.059204101562	805.9367065429688	584.902099609375	1107.045776367188	813.4296875	624.5955200195312	693.6041259765625	1461.22412109375	368.0405883789062	643.87646484375	1388.435791015625	323.1869812011719	655.7913818359375	1129.062622070312	257.1136169433594	741.177734375	1101.889526367188	300.8338623046875	647.906494140625	864.720947265625	378.4106140136719	616.0614624023438	848.0462646484375	292.5609741210938	641.378173828125	1051.185913085938	258.0559997558594	680.6703491210938	682.0673217773438	401.7332458496094	636.0595703125	753.4512329101562	401.9741516113281	613.57275390625	744.4592895507812	329.8528747558594	863.4381103515625	1691.126953125	490.6455688476562	653.4631958007812	1637.30322265625	518.137451171875	716.7183227539062	1654.000732421875	591.579833984375	766.7489013671875	1662.051147460938	388.0916748046875	1064.620361328125	930.6207275390625	481.890380859375	695.900634765625	915.5177612304688	421.5995483398438	744.1351928710938	951.11572265625	534.1701049804688	973.2141723632812	971.1217041015625	584.5156860351562	1080.76171875	480.735107421875	484.5919189453125	1088.741821289062	629.4769897460938	478.6087341308594	1186.707275390625	157.8244476318359	89.36231231689453	1152.504638671875	333.9481506347656	276.8588256835938	1086.45703125	25.62996482849121	228.9654846191406	1079.791748046875	64.40854644775391	187.5898590087891	1184.662719726562	61.47690200805664	169.6750183105469	1148.028686523438	216.3716125488281	40.89729309082031	708.1514282226562	516.4703369140625	584.01708984375	680.1884155273438	763.411376953125	478.5163879394531	807.3587036132812	32.44438552856445	610.7826538085938	720.497802734375	386.9049377441406	598.0404663085938	688.8193359375	43.87252426147461	812.53515625	752.4230346679688	45.96321868896484	785.1836547851562	693.879150390625	39.62667465209961	708.1000366210938	876.4774169921875	33.45144271850586	599.688720703125	
579	5.78	816.2185668945312	1030.873046875	335.589599609375	973.5894165039062	1031.037963867188	377.5144958496094	904.4555053710938	1092.12646484375	352.2493896484375	808.1746215820312	1276.017700195312	559.86279296875	911.2799072265625	1235.32421875	328.8495178222656	877.5344848632812	1502.061767578125	378.95751953125	816.1084594726562	1402.087768554688	518.8950805664062	841.5789184570312	1358.639892578125	297.1543273925781	977.063720703125	1473.71435546875	403.0080871582031	998.9920654296875	1482.596069335938	526.4437255859375	1098.724975585938	1371.084594726562	528.3737182617188	1156.8994140625	1161.80419921875	534.2915649414062	1100.656005859375	1141.175903320312	445.5148315429688	1092.614013671875	906.0425415039062	602.8475952148438	1168.74462890625	896.1600341796875	558.0186157226562	1170.147094726562	1047.699951171875	554.4227294921875	1080.78271484375	718.4109497070312	625.44970703125	1159.422607421875	806.5009765625	591.8141479492188	1101.184326171875	813.4381103515625	631.28173828125	690.1566162109375	1462.943603515625	374.5641479492188	640.7427368164062	1390.136474609375	329.35986328125	652.6187744140625	1130.411254882812	264.5098876953125	737.4085083007812	1102.896240234375	309.2855224609375	643.3241577148438	867.0707397460938	388.0797119140625	612.221435546875	849.6324462890625	302.1920776367188	638.094482421875	1052.445068359375	265.9295043945312	675.3344116210938	684.7242431640625	413.5457458496094	630.9845581054688	756.1502075195312	412.6618347167969	609.149658203125	746.4512329101562	340.4778137207031	858.5078125	1692.7373046875	498.6326599121094	648.135498046875	1638.613525390625	524.208984375	710.9591674804688	1655.440551757812	598.2781982421875	762.7711181640625	1663.487670898438	395.2355651855469	1059.64306640625	931.5571899414062	493.2142639160156	691.9850463867188	916.6022338867188	427.845703125	738.4613037109375	952.572265625	541.0167236328125	966.8300170898438	972.7499389648438	594.1851196289062	1073.849487304688	480.3784484863281	504.6741943359375	1082.77978515625	629.5416259765625	496.2449035644531	1187.543090820312	168.2562713623047	102.876335144043	1149.51611328125	337.4218139648438	295.4075012207031	1086.437377929688	26.26108551025391	234.9100189208984	1079.862426757812	68.50599670410156	195.6825103759766	1185.009887695312	69.03284454345703	179.6463165283203	1149.167724609375	227.9422302246094	55.97649383544922	705.531494140625	516.5496215820312	589.2800903320312	676.410400390625	764.0071411132812	484.5838928222656	807.4646606445312	32.64728164672852	611.0392456054688	718.4993896484375	386.9267578125	602.2340087890625	689.0133056640625	42.69225311279297	813.1371459960938	752.607666015625	45.15598678588867	785.7350463867188	693.8838500976562	39.64485931396484	708.5518188476562	876.4821166992188	33.60145950317383	599.833740234375	
